<?xml version="1.0" encoding="UTF-8" standalone="no"?>
<!DOCTYPE svg PUBLIC "-//W3C//DTD SVG 1.1//EN" "http://www.w3.org/Graphics/SVG/1.1/DTD/svg11.dtd">
<svg width="100%" height="100%" viewBox="0 0 1883 760" version="1.1" xmlns="http://www.w3.org/2000/svg" xmlns:xlink="http://www.w3.org/1999/xlink" xml:space="preserve" xmlns:serif="http://www.serif.com/" style="fill-rule:evenodd;clip-rule:evenodd;stroke-linejoin:round;stroke-miterlimit:2;">
    <g transform="matrix(1,0,0,1,0,-813.845264)">
        <g id="Artboard1" transform="matrix(0.784447,0,0,0.316538,0,813.845264)">
            <rect x="0" y="0" width="2400" height="2400" style="fill:none;"/>
            <g transform="matrix(1.274784,0,0,3.159176,-410.16527,-2571.080605)">
                <g transform="matrix(2.34375,0,0,2.34375,0,0)">
                    <path d="M217.456,499.763C231.577,501.98 242.72,502.784 244.313,502.774C245.434,503.025 245.306,503.159 246.529,503.27C300.235,508.168 350.558,503.781 359.567,502.995C369.621,501.929 369.574,502.054 379.477,500.373C394.559,497.812 392.714,505.692 393.021,518.637C392.231,528.159 394.649,555.649 391.647,576.526C382.079,643.08 271.828,625.608 261.459,623.728C248.952,621.46 232.454,613.736 229.586,611.375C203.996,590.314 207.899,575.501 207.449,518.49C207.574,509.213 205.335,497.879 217.456,499.763Z" style="fill:rgb(29,86,90);"/>
                </g>
                <g transform="matrix(2.34375,0,0,2.34375,0,0)">
                    <path d="M257.981,445.61C256.447,452.627 256.721,452.599 254.705,459.524C254.514,459.216 255.073,458.76 254.883,458.451C254.369,457.622 253.938,458.129 215.61,473.796C206.021,477.716 209.46,481.653 212.566,491.479C214.064,496.217 213.856,496.38 217.456,499.763C205.335,497.879 207.574,509.213 207.449,518.49C203.253,519.777 178.102,518.626 177.447,518.487C177.392,516.432 177.327,516.512 177.34,514.503C177.607,472.644 176.367,436.91 184.931,421.709C194.901,404.012 210.182,397.981 227.521,395.647C249.706,392.662 360.705,394.761 361.482,394.799C410.035,397.206 415.238,419.826 420.257,435.559C424.247,448.068 422.951,511.786 422.816,518.417C412.065,519.937 395.4,518.8 393.021,518.637C392.714,505.692 394.559,497.812 379.477,500.373C369.574,502.054 369.621,501.929 359.567,502.995L358.5,502.323C358.337,501.838 357.365,501.986 357.202,501.5C356.795,500.286 367.873,459.958 367.125,453.557C366.454,447.813 358.153,443.367 355.445,442.932C334.051,439.492 322.85,435.911 320.478,435.62C309.7,434.297 308.66,432.994 278.465,426.896C261.641,423.498 261.444,431.006 257.981,445.61Z" style="fill:rgb(247,204,125);"/>
                </g>
                <g transform="matrix(2.34375,0,0,2.34375,0,0)">
                    <path d="M177.447,518.487C178.102,518.626 203.253,519.777 207.449,518.49C207.899,575.501 203.996,590.314 229.586,611.375C232.454,613.736 248.952,621.46 261.459,623.728C271.828,625.608 382.079,643.08 391.647,576.526C394.649,555.649 392.231,528.159 393.021,518.637C395.4,518.8 412.065,519.937 422.816,518.417C422.812,520.777 422.808,523.138 422.804,525.498C423.179,569.083 420.927,589.629 419.217,595.414C407.042,636.618 367.029,633.009 322.494,633.085C230.691,633.24 223.485,632.926 212.44,628.674C174.086,613.911 177.53,578.9 177.447,518.487Z" style="fill:rgb(152,179,131);"/>
                </g>
                <g transform="matrix(2.34375,0,0,2.34375,0,0)">
                    <path d="M257.981,445.61C261.444,431.006 261.641,423.498 278.465,426.896C308.66,432.994 309.7,434.297 320.478,435.62C322.85,435.911 334.051,439.492 355.445,442.932C358.153,443.367 366.454,447.813 367.125,453.557C367.873,459.958 356.795,500.286 357.202,501.5C357.365,501.986 358.337,501.838 358.5,502.323L359.567,502.995C350.558,503.781 300.235,508.168 246.529,503.27C245.306,503.159 245.434,503.025 244.313,502.774C249.375,484.808 248.456,484.674 254.705,459.524C256.721,452.599 256.447,452.627 257.981,445.61Z" style="fill:rgb(251,244,231);"/>
                </g>
                <g transform="matrix(2.34375,0,0,2.34375,0,0)">
                    <path d="M254.705,459.524C248.456,484.674 249.375,484.808 244.313,502.774C242.72,502.784 231.577,501.98 217.456,499.763C213.856,496.38 214.064,496.217 212.566,491.479C209.46,481.653 206.021,477.716 215.61,473.796C253.938,458.129 254.369,457.622 254.883,458.451C255.073,458.76 254.514,459.216 254.705,459.524Z" style="fill:rgb(222,126,73);"/>
                </g>
                <g transform="matrix(2.34375,0,0,2.34375,0,0)">
                    <path d="M284.241,495.506C284.763,491.837 292.831,457.943 293.451,456.475C296.285,449.761 313.52,468.944 325.891,479.057C334.926,486.443 323.951,488.23 312.522,491.576C289.822,498.223 285.737,501.649 284.241,495.506Z" style="fill:rgb(222,125,76);"/>
                </g>
                <g transform="matrix(2.34375,0,0,2.34375,0,0)">
                    <path d="M321.428,427.794C322.226,421.844 327.826,424.262 336.584,422.905C337.453,422.77 338.068,422.675 347.569,423.14C349.841,423.251 353,429.437 349.475,430.428C348.892,430.592 345.125,434.823 335.698,431.138C334.076,430.504 332.266,426.881 328.502,427.639C327.863,427.767 327.867,427.998 327.398,427.645C327.007,427.352 323.708,427.761 321.428,427.794Z" style="fill:rgb(249,210,146);"/>
                </g>
                <g transform="matrix(2.34375,0,0,2.34375,0,0)">
                    <path d="M196.399,416.723C196.255,416.344 196.608,415.887 196.464,415.508C195.563,413.138 195.203,413.213 195.321,413.029C195.766,412.34 196.078,413.255 196.684,412.803C198.086,411.757 198.56,411.881 198.733,411.926C201.257,412.586 200.889,410.976 203.404,410.313C206.305,409.547 205.959,404.544 208.526,405.295C211.677,406.217 203.51,415.61 202.933,417.639C202.19,420.252 201.389,419.75 200.111,422.128C199.052,424.099 198.166,422.769 197.44,422.672C194.478,422.279 196.777,420.889 196.957,420.295C197.51,418.471 196.993,418.558 196.399,416.723Z" style="fill:rgb(245,202,120);"/>
                </g>
                <g transform="matrix(2.34375,0,0,2.34375,0,0)">
                    <path d="M232.074,451.51C229.744,464.328 216.608,452.657 222.916,447.923C230.269,442.405 231.921,450.738 232.074,451.51Z" style="fill:rgb(72,70,49);"/>
                </g>
                <g transform="matrix(2.34375,0,0,2.34375,0,0)">
                    <path d="M372.452,437.169C370.87,441.307 369.567,441.162 370.583,445.484C371.128,447.8 373.471,447.708 374.151,447.015C376.6,444.523 378.086,447.037 376.619,448.547C373.882,451.363 372.919,449.558 372.718,449.596C372.572,449.623 372.725,449.737 372.231,451.391C370.245,458.038 371.422,448.606 367.695,445.257C365.52,443.302 366.999,441.571 364.5,440.056C362.655,438.937 363.941,434.528 372.452,437.169Z" style="fill:rgb(248,204,129);"/>
                </g>
                <g transform="matrix(2.34375,0,0,2.34375,0,0)">
                    <path d="M410.541,533.329C408.715,534.186 407.98,533.561 407.689,535.556C407.537,536.598 406.666,539.39 408.708,541.31C410.979,543.446 408.209,544.92 407.018,544.5C404.65,543.666 404.937,543.321 403.528,541.312C405.29,539.785 406.892,540.015 405.5,538.144C405.345,537.936 404.889,538.783 404.386,537.65C401.324,530.755 405.764,529.402 406.43,529.2C409.087,528.39 408.705,529.755 409.647,532.315C409.802,532.737 410.385,532.906 410.541,533.329Z" style="fill:rgb(155,181,133);"/>
                </g>
                <g transform="matrix(2.34375,0,0,2.34375,0,0)">
                    <path d="M214.473,427.741C214.207,427.538 213.746,428.09 213.479,427.887C212.267,426.963 211.776,425.598 211.692,425.365C211.284,424.229 212.761,418.717 217.3,421.719C222.835,425.379 219.736,432.907 217.508,429.486C216.985,428.685 218.017,423.693 214.473,427.741Z" style="fill:rgb(250,212,141);"/>
                </g>
                <g transform="matrix(2.34375,0,0,2.34375,0,0)">
                    <path d="M366.352,430.585C366.263,430.037 365.364,424.466 370.561,425.065C376.971,425.804 372.432,437.809 366.352,430.585Z" style="fill:rgb(78,64,43);"/>
                </g>
                <g transform="matrix(2.34375,0,0,2.34375,0,0)">
                    <path d="M264.495,464.769C264.06,464.646 259.548,463.379 261.898,459.76C264.541,455.688 272.237,462.648 264.495,464.769Z" style="fill:rgb(197,120,67);"/>
                </g>
                <g transform="matrix(2.34375,0,0,2.34375,0,0)">
                    <path d="M233.408,422.909C240.152,427.3 232.849,429.91 231.397,427.594C228.522,423.006 233.001,422.917 233.408,422.909Z" style="fill:rgb(251,243,218);"/>
                </g>
                <g transform="matrix(2.34375,0,0,2.34375,0,0)">
                    <path d="M383.526,459.47C379.6,452.616 387.021,455.023 387.437,456.525C388.472,460.269 383.913,459.532 383.526,459.47Z" style="fill:rgb(92,63,23);"/>
                </g>
                <g transform="matrix(2.34375,0,0,2.34375,0,0)">
                    <path d="M197.498,464.544C197.815,464.677 202.298,466.568 198.643,468.679C195.938,470.242 192.569,466.308 197.498,464.544Z" style="fill:rgb(98,81,39);"/>
                </g>
                <g transform="matrix(2.34375,0,0,2.34375,0,0)">
                    <path d="M400.307,489.169C400.484,489.132 402.984,488.614 402.198,490.414C401.862,491.184 397.804,493.027 400.307,489.169Z" style="fill:rgb(166,125,48);"/>
                </g>
                <g transform="matrix(2.34375,0,0,2.34375,0,0)">
                    <path d="M418.815,618.517C419.414,618.167 418.943,617.842 419.507,617.513C419.574,617.474 419.977,617.239 420.479,617.545C421.436,618.128 420.493,621.589 418.815,618.517Z" style="fill:rgb(214,214,216);"/>
                </g>
                <g transform="matrix(2.34375,0,0,2.34375,0,0)">
                    <path d="M251.251,452.464C251.29,452.628 253.235,460.71 250.096,454.231C249.851,453.726 250.13,453.826 251.251,452.464Z" style="fill:rgb(248,204,125);"/>
                </g>
                <g transform="matrix(2.34375,0,0,2.34375,0,0)">
                    <path d="M397.514,521.736C396.397,522.985 396.434,523.156 396.312,523.079C396.217,523.019 395.148,522.344 396.5,521.682C396.804,521.533 397.21,521.884 397.514,521.736Z" style="fill:rgb(153,180,131);"/>
                </g>
            </g>
            <g transform="matrix(1.991971,0,0,4.936513,-1362.675672,-4324.791765)">
                <g transform="matrix(144,0,0,144,1186.310776,1173.966417)">
                    <path d="M0.07,-0L0.07,-0.72L0.367,-0.72C0.374,-0.72 0.384,-0.72 0.395,-0.719C0.406,-0.719 0.416,-0.718 0.425,-0.716C0.467,-0.71 0.501,-0.696 0.528,-0.674C0.556,-0.653 0.576,-0.626 0.589,-0.594C0.602,-0.561 0.609,-0.525 0.609,-0.486C0.609,-0.446 0.602,-0.41 0.589,-0.378C0.575,-0.345 0.555,-0.318 0.528,-0.297C0.501,-0.276 0.466,-0.262 0.425,-0.255C0.416,-0.254 0.406,-0.253 0.394,-0.252C0.383,-0.252 0.374,-0.251 0.367,-0.251L0.19,-0.251L0.19,-0L0.07,-0ZM0.19,-0.364L0.362,-0.364C0.369,-0.364 0.377,-0.364 0.385,-0.365C0.393,-0.366 0.401,-0.367 0.408,-0.369C0.428,-0.374 0.444,-0.383 0.455,-0.396C0.467,-0.408 0.475,-0.423 0.48,-0.439C0.484,-0.455 0.487,-0.47 0.487,-0.486C0.487,-0.501 0.484,-0.517 0.48,-0.533C0.475,-0.549 0.467,-0.563 0.455,-0.576C0.444,-0.588 0.428,-0.597 0.408,-0.602C0.401,-0.604 0.393,-0.606 0.385,-0.606C0.377,-0.607 0.369,-0.607 0.362,-0.607L0.19,-0.607L0.19,-0.364Z" style="fill-rule:nonzero;"/>
                </g>
                <g transform="matrix(144,0,0,144,1277.030776,1173.966417)">
                    <path d="M0.309,0.015C0.254,0.015 0.207,0.003 0.167,-0.022C0.127,-0.046 0.095,-0.079 0.073,-0.122C0.051,-0.165 0.04,-0.214 0.04,-0.27C0.04,-0.327 0.051,-0.376 0.074,-0.419C0.097,-0.462 0.128,-0.495 0.168,-0.519C0.209,-0.543 0.255,-0.555 0.309,-0.555C0.363,-0.555 0.41,-0.543 0.451,-0.519C0.491,-0.494 0.522,-0.461 0.545,-0.418C0.567,-0.375 0.578,-0.326 0.578,-0.27C0.578,-0.214 0.567,-0.164 0.544,-0.122C0.522,-0.079 0.491,-0.045 0.45,-0.021C0.41,0.003 0.362,0.015 0.309,0.015ZM0.309,-0.098C0.356,-0.098 0.392,-0.114 0.415,-0.146C0.439,-0.178 0.451,-0.219 0.451,-0.27C0.451,-0.322 0.439,-0.364 0.415,-0.395C0.391,-0.427 0.356,-0.442 0.309,-0.442C0.276,-0.442 0.25,-0.435 0.229,-0.42C0.208,-0.406 0.193,-0.386 0.183,-0.36C0.173,-0.334 0.168,-0.304 0.168,-0.27C0.168,-0.218 0.179,-0.176 0.203,-0.145C0.227,-0.113 0.262,-0.098 0.309,-0.098Z" style="fill-rule:nonzero;"/>
                </g>
                <g transform="matrix(144,0,0,144,1366.022776,1173.966417)">
                    <path d="M0.304,0.015C0.249,0.015 0.201,0.003 0.162,-0.022C0.123,-0.047 0.092,-0.081 0.072,-0.124C0.051,-0.167 0.04,-0.216 0.04,-0.27C0.04,-0.325 0.051,-0.374 0.073,-0.417C0.094,-0.46 0.125,-0.494 0.165,-0.518C0.204,-0.543 0.251,-0.555 0.306,-0.555C0.368,-0.555 0.419,-0.54 0.462,-0.509C0.505,-0.478 0.532,-0.436 0.545,-0.383L0.425,-0.35C0.416,-0.379 0.4,-0.402 0.379,-0.418C0.357,-0.434 0.332,-0.442 0.304,-0.442C0.273,-0.442 0.247,-0.435 0.227,-0.42C0.207,-0.405 0.192,-0.384 0.182,-0.358C0.172,-0.332 0.168,-0.303 0.168,-0.27C0.168,-0.219 0.179,-0.177 0.202,-0.145C0.225,-0.114 0.259,-0.098 0.304,-0.098C0.337,-0.098 0.362,-0.105 0.38,-0.12C0.399,-0.135 0.413,-0.156 0.422,-0.183L0.545,-0.156C0.528,-0.101 0.499,-0.059 0.458,-0.029C0.416,0 0.365,0.015 0.304,0.015Z" style="fill-rule:nonzero;"/>
                </g>
                <g transform="matrix(144,0,0,144,1448.894776,1173.966417)">
                    <path d="M0.069,-0L0.07,-0.72L0.192,-0.72L0.192,-0.28L0.39,-0.54L0.54,-0.54L0.331,-0.27L0.558,-0L0.399,-0L0.192,-0.26L0.192,-0L0.069,-0Z" style="fill-rule:nonzero;"/>
                </g>
                <g transform="matrix(144,0,0,144,1524.926776,1173.966417)">
                    <path d="M0.315,0.015C0.261,0.015 0.213,0.003 0.172,-0.021C0.13,-0.044 0.098,-0.077 0.075,-0.119C0.052,-0.161 0.04,-0.209 0.04,-0.264C0.04,-0.323 0.051,-0.374 0.074,-0.418C0.097,-0.461 0.128,-0.495 0.169,-0.519C0.209,-0.543 0.256,-0.555 0.309,-0.555C0.364,-0.555 0.412,-0.542 0.451,-0.516C0.49,-0.49 0.519,-0.453 0.539,-0.405C0.558,-0.357 0.565,-0.301 0.56,-0.236L0.441,-0.236L0.441,-0.28C0.44,-0.339 0.43,-0.382 0.41,-0.409C0.389,-0.436 0.357,-0.45 0.314,-0.45C0.264,-0.45 0.228,-0.434 0.204,-0.404C0.18,-0.373 0.168,-0.329 0.168,-0.27C0.168,-0.215 0.18,-0.173 0.204,-0.143C0.228,-0.113 0.263,-0.098 0.309,-0.098C0.338,-0.098 0.364,-0.104 0.385,-0.118C0.407,-0.131 0.423,-0.15 0.435,-0.175L0.554,-0.139C0.534,-0.09 0.502,-0.052 0.458,-0.025C0.415,0.002 0.367,0.015 0.315,0.015ZM0.13,-0.236L0.13,-0.328L0.501,-0.328L0.501,-0.236L0.13,-0.236Z" style="fill-rule:nonzero;"/>
                </g>
                <g transform="matrix(144,0,0,144,1611.614776,1173.966417)">
                    <path d="M0.387,-0C0.351,0.007 0.316,0.01 0.282,0.009C0.247,0.008 0.217,0.002 0.19,-0.01C0.163,-0.022 0.143,-0.041 0.129,-0.066C0.116,-0.09 0.11,-0.114 0.109,-0.138C0.108,-0.162 0.108,-0.19 0.108,-0.221L0.108,-0.69L0.228,-0.69L0.228,-0.227C0.228,-0.206 0.228,-0.187 0.229,-0.171C0.229,-0.154 0.233,-0.141 0.239,-0.13C0.251,-0.111 0.27,-0.099 0.297,-0.097C0.323,-0.095 0.353,-0.096 0.387,-0.101L0.387,-0ZM0.01,-0.446L0.01,-0.54L0.387,-0.54L0.387,-0.446L0.01,-0.446Z" style="fill-rule:nonzero;"/>
                </g>
                <g transform="matrix(144,0,0,144,1670.006776,1173.966417)">
                    <path d="M0.315,0.015C0.261,0.015 0.213,0.003 0.172,-0.021C0.13,-0.044 0.098,-0.077 0.075,-0.119C0.052,-0.161 0.04,-0.209 0.04,-0.264C0.04,-0.323 0.051,-0.374 0.074,-0.418C0.097,-0.461 0.128,-0.495 0.169,-0.519C0.209,-0.543 0.256,-0.555 0.309,-0.555C0.364,-0.555 0.412,-0.542 0.451,-0.516C0.49,-0.49 0.519,-0.453 0.539,-0.405C0.558,-0.357 0.565,-0.301 0.56,-0.236L0.441,-0.236L0.441,-0.28C0.44,-0.339 0.43,-0.382 0.41,-0.409C0.389,-0.436 0.357,-0.45 0.314,-0.45C0.264,-0.45 0.228,-0.434 0.204,-0.404C0.18,-0.373 0.168,-0.329 0.168,-0.27C0.168,-0.215 0.18,-0.173 0.204,-0.143C0.228,-0.113 0.263,-0.098 0.309,-0.098C0.338,-0.098 0.364,-0.104 0.385,-0.118C0.407,-0.131 0.423,-0.15 0.435,-0.175L0.554,-0.139C0.534,-0.09 0.502,-0.052 0.458,-0.025C0.415,0.002 0.367,0.015 0.315,0.015ZM0.13,-0.236L0.13,-0.328L0.501,-0.328L0.501,-0.236L0.13,-0.236Z" style="fill-rule:nonzero;"/>
                </g>
                <g transform="matrix(144,0,0,144,1756.694776,1173.966417)">
                    <path d="M0.287,0.015C0.237,0.015 0.193,0.002 0.156,-0.023C0.12,-0.048 0.091,-0.082 0.071,-0.125C0.05,-0.168 0.04,-0.216 0.04,-0.27C0.04,-0.325 0.05,-0.374 0.071,-0.416C0.091,-0.459 0.121,-0.493 0.158,-0.518C0.196,-0.543 0.24,-0.555 0.291,-0.555C0.342,-0.555 0.385,-0.543 0.42,-0.518C0.455,-0.493 0.482,-0.459 0.5,-0.416C0.518,-0.373 0.526,-0.324 0.526,-0.27C0.526,-0.216 0.517,-0.168 0.499,-0.125C0.481,-0.082 0.455,-0.048 0.419,-0.023C0.383,0.002 0.339,0.015 0.287,0.015ZM0.305,-0.093C0.337,-0.093 0.363,-0.1 0.383,-0.115C0.403,-0.13 0.418,-0.151 0.427,-0.178C0.436,-0.204 0.44,-0.235 0.44,-0.27C0.44,-0.305 0.436,-0.336 0.427,-0.363C0.418,-0.389 0.403,-0.41 0.384,-0.425C0.365,-0.44 0.34,-0.447 0.309,-0.447C0.277,-0.447 0.25,-0.439 0.229,-0.423C0.208,-0.407 0.193,-0.386 0.183,-0.359C0.173,-0.333 0.168,-0.303 0.168,-0.27C0.168,-0.237 0.172,-0.207 0.182,-0.18C0.192,-0.154 0.207,-0.132 0.228,-0.117C0.248,-0.101 0.274,-0.093 0.305,-0.093ZM0.44,-0L0.44,-0.379L0.426,-0.379L0.426,-0.72L0.547,-0.72L0.547,-0L0.44,-0Z" style="fill-rule:nonzero;"/>
                </g>
                <g transform="matrix(144,0,0,144,1845.542776,1173.966417)">
                </g>
            </g>
        </g>
    </g>
</svg>
